<svg width="212" height="52" viewBox="0 0 212 52" fill="none" xmlns="http://www.w3.org/2000/svg">
<mask id="mask0" mask-type="alpha" maskUnits="userSpaceOnUse" x="52" y="18" width="152" height="22">
<g clip-path="url(#clip0)">
<path d="M184 25.61C183.916 26.0088 183.688 26.3627 183.36 26.6043C183.031 26.8459 182.626 26.9583 182.22 26.92H181.35C179.35 26.92 178.67 28.47 178.62 31.48V34.48C178.592 34.9294 178.386 35.3492 178.049 35.6473C177.711 35.9454 177.269 36.0974 176.82 36.07C176.374 36.0822 175.941 35.9249 175.607 35.6297C175.273 35.3346 175.063 34.9237 175.02 34.48V25.32C175.063 24.8763 175.273 24.4654 175.607 24.1703C175.941 23.8752 176.374 23.7178 176.82 23.73C177.269 23.7026 177.711 23.8547 178.049 24.1528C178.386 24.4509 178.592 24.8706 178.62 25.32V26.64C179.29 24.4 180.55 23.64 181.79 23.64C183.03 23.64 184.24 23.91 184 25.61Z" fill="black"/>
<path d="M204 34.41C203.972 34.8594 203.766 35.2792 203.429 35.5773C203.091 35.8754 202.649 36.0274 202.2 36C201.754 36.0146 201.319 35.8581 200.984 35.5625C200.65 35.2669 200.441 34.8546 200.4 34.41V29.47C200.439 29.1789 200.417 28.8828 200.336 28.6006C200.255 28.3183 200.116 28.0561 199.928 27.8304C199.739 27.6048 199.507 27.4206 199.244 27.2898C198.981 27.1589 198.693 27.084 198.4 27.07C197.27 27.07 196.4 27.77 196.4 29.52V34.41C196.372 34.8594 196.166 35.2792 195.829 35.5773C195.491 35.8754 195.049 36.0274 194.6 36C194.154 36.0146 193.719 35.8581 193.384 35.5625C193.05 35.2669 192.841 34.8546 192.8 34.41V29.41C192.835 29.1238 192.81 28.8334 192.726 28.5574C192.642 28.2815 192.501 28.0261 192.313 27.8077C192.125 27.5893 191.893 27.4126 191.632 27.289C191.372 27.1654 191.088 27.0976 190.8 27.09C189.72 27.09 188.71 27.71 188.71 29.54V34.43C188.682 34.8794 188.476 35.2992 188.139 35.5973C187.801 35.8954 187.359 36.0474 186.91 36.02C186.464 36.0322 186.031 35.8749 185.697 35.5798C185.363 35.2846 185.153 34.8737 185.11 34.43V25.32C185.153 24.8763 185.363 24.4654 185.697 24.1703C186.031 23.8752 186.464 23.7178 186.91 23.73C187.359 23.7026 187.801 23.8547 188.139 24.1528C188.476 24.4509 188.682 24.8706 188.71 25.32V25.61C188.987 25.0113 189.431 24.5046 189.987 24.1501C190.544 23.7956 191.19 23.6082 191.85 23.61C192.671 23.5084 193.503 23.6732 194.223 24.0801C194.943 24.487 195.513 25.1145 195.85 25.87C196.155 25.1946 196.646 24.6203 197.266 24.2146C197.886 23.8089 198.609 23.5887 199.35 23.58C202.21 23.58 204.03 25.41 204.06 29.03L204 34.41Z" fill="black"/>
<path d="M160.61 29.72C160.675 28.0887 161.369 26.5457 162.546 25.4145C163.723 24.2832 165.292 23.6514 166.925 23.6514C168.558 23.6514 170.127 24.2832 171.304 25.4145C172.481 26.5457 173.175 28.0887 173.24 29.72C173.175 31.3514 172.481 32.8943 171.304 34.0256C170.127 35.1569 168.558 35.7887 166.925 35.7887C165.292 35.7887 163.723 35.1569 162.546 34.0256C161.369 32.8943 160.675 31.3514 160.61 29.72ZM169.61 29.72C169.632 29.3496 169.579 28.9785 169.453 28.6296C169.326 28.2807 169.13 27.9613 168.876 27.691C168.621 27.4208 168.315 27.2055 167.974 27.0583C167.633 26.9111 167.266 26.8352 166.895 26.8352C166.524 26.8352 166.157 26.9111 165.816 27.0583C165.475 27.2055 165.169 27.4208 164.914 27.691C164.66 27.9613 164.464 28.2807 164.337 28.6296C164.211 28.9785 164.157 29.3496 164.18 29.72C164.157 30.0904 164.211 30.4615 164.337 30.8104C164.464 31.1594 164.66 31.4788 164.914 31.749C165.169 32.0192 165.475 32.2346 165.816 32.3818C166.157 32.5289 166.524 32.6049 166.895 32.6049C167.266 32.6049 167.633 32.5289 167.974 32.3818C168.315 32.2346 168.621 32.0192 168.876 31.749C169.13 31.4788 169.326 31.1594 169.453 30.8104C169.579 30.4615 169.632 30.0904 169.61 29.72Z" fill="black"/>
<path d="M159 23.86C159.177 23.8677 159.351 23.9103 159.512 23.9854C159.673 24.0604 159.818 24.1665 159.937 24.2975C160.057 24.4284 160.15 24.5817 160.211 24.7486C160.271 24.9155 160.298 25.0927 160.29 25.27C160.296 25.6264 160.166 25.9718 159.926 26.2357C159.687 26.4996 159.355 26.662 159 26.69H157.77V34.41C157.739 34.853 157.537 35.2666 157.207 35.5633C156.877 35.86 156.444 36.0167 156 36C155.554 36.0146 155.119 35.8581 154.784 35.5625C154.45 35.2669 154.241 34.8546 154.2 34.41V26.69H153.06C152.705 26.662 152.375 26.4991 152.137 26.235C151.899 25.9709 151.771 25.6255 151.78 25.27C151.764 24.9135 151.889 24.5651 152.129 24.3009C152.369 24.0366 152.704 23.8781 153.06 23.86H154.2V23.71C154.19 20 156 18 159.46 18H159.77C159.986 18 160.2 18.0427 160.4 18.1258C160.6 18.2088 160.781 18.3305 160.933 18.4839C161.086 18.6372 161.206 18.8192 161.288 19.0193C161.37 19.2195 161.411 19.4338 161.41 19.65C161.4 20.0818 161.224 20.493 160.918 20.7984C160.613 21.1038 160.202 21.2798 159.77 21.29H159.46C158.22 21.29 157.79 22.17 157.79 23.58V23.86H159Z" fill="black"/>
<path d="M145 23.86V20.72C145.043 20.2754 145.252 19.8634 145.586 19.5667C145.92 19.2699 146.353 19.1104 146.8 19.12C147.25 19.0954 147.692 19.2497 148.029 19.5494C148.367 19.849 148.572 20.2698 148.6 20.72V23.86H150C150.177 23.8677 150.351 23.9103 150.512 23.9854C150.673 24.0604 150.818 24.1665 150.937 24.2974C151.057 24.4284 151.15 24.5817 151.211 24.7486C151.271 24.9155 151.298 25.0927 151.29 25.27C151.299 25.6271 151.169 25.9738 150.929 26.2382C150.689 26.5026 150.356 26.6644 150 26.69H148.6V34.41C148.572 34.8594 148.366 35.2791 148.029 35.5772C147.691 35.8753 147.249 36.0274 146.8 36C146.354 36.0122 145.921 35.8548 145.587 35.5597C145.253 35.2646 145.043 34.8537 145 34.41V26.69H144C143.646 26.662 143.315 26.4991 143.077 26.235C142.839 25.9708 142.711 25.6255 142.72 25.27C142.704 24.9135 142.829 24.5651 143.069 24.3008C143.309 24.0366 143.644 23.8781 144 23.86H145Z" fill="black"/>
<path d="M138 25.22C138.041 24.7754 138.25 24.3631 138.584 24.0675C138.919 23.7719 139.354 23.6154 139.8 23.63C140.249 23.6026 140.691 23.7547 141.029 24.0528C141.366 24.3509 141.572 24.7706 141.6 25.22V34.3C141.572 34.7502 141.367 35.171 141.029 35.4706C140.692 35.7703 140.25 35.9247 139.8 35.9C139.352 35.9144 138.916 35.7566 138.581 35.4589C138.246 35.1612 138.038 34.7464 138 34.3V34.07C137.606 34.6733 137.065 35.1668 136.429 35.5043C135.792 35.8419 135.08 36.0124 134.36 36C131.3 36 128.52 33.74 128.52 29.75C128.52 25.76 131.3 23.52 134.36 23.52C135.077 23.5253 135.783 23.7035 136.416 24.0395C137.05 24.3755 137.593 24.8593 138 25.45V25.22ZM135.09 32.81C135.895 32.81 136.667 32.4903 137.236 31.9211C137.805 31.3519 138.125 30.58 138.125 29.775C138.125 28.9701 137.805 28.1981 137.236 27.629C136.667 27.0598 135.895 26.74 135.09 26.74C134.704 26.7408 134.322 26.8202 133.968 26.9734C133.614 27.1266 133.294 27.3505 133.03 27.6312C132.765 27.912 132.56 28.2438 132.428 28.6063C132.295 28.9689 132.238 29.3547 132.26 29.74C132.228 30.1277 132.277 30.5177 132.402 30.8859C132.528 31.254 132.727 31.5925 132.989 31.8804C133.251 32.1682 133.568 32.3992 133.923 32.5591C134.278 32.7191 134.661 32.8045 135.05 32.81H135.09Z" fill="black"/>
<path d="M126.68 34.41C126.649 34.8584 126.443 35.2766 126.106 35.5742C125.769 35.8717 125.329 36.0247 124.88 36C124.434 36.0146 123.999 35.8581 123.664 35.5625C123.33 35.2669 123.121 34.8546 123.08 34.41V19.6C123.118 19.1536 123.326 18.7388 123.661 18.4411C123.996 18.1434 124.432 17.9856 124.88 18C125.33 17.9754 125.772 18.1297 126.109 18.4294C126.447 18.729 126.652 19.1498 126.68 19.6V34.41Z" fill="black"/>
<path d="M115.4 23.52C118.46 23.52 121.24 25.76 121.24 29.75C121.24 33.74 118.46 36 115.4 36C114.686 36.0056 113.983 35.8319 113.354 35.4946C112.725 35.1574 112.19 34.6675 111.8 34.07V38.4C111.759 38.8455 111.551 39.2589 111.216 39.5561C110.882 39.8533 110.447 40.012 110 40C109.777 40.0135 109.553 39.9828 109.341 39.9097C109.13 39.8365 108.935 39.7224 108.768 39.5737C108.601 39.4251 108.464 39.2449 108.367 39.0435C108.269 38.8421 108.213 38.6234 108.2 38.4V25.22C108.228 24.7706 108.434 24.3509 108.771 24.0528C109.109 23.7547 109.551 23.6026 110 23.63C110.446 23.6178 110.879 23.7752 111.213 24.0703C111.547 24.3654 111.757 24.7763 111.8 25.22V25.45C112.203 24.8648 112.74 24.3844 113.366 24.0487C113.992 23.713 114.69 23.5317 115.4 23.52ZM114.71 26.74C113.905 26.74 113.133 27.0598 112.564 27.629C111.995 28.1981 111.675 28.9701 111.675 29.775C111.675 30.58 111.995 31.3519 112.564 31.9211C113.133 32.4903 113.905 32.81 114.71 32.81C115.096 32.8093 115.478 32.7299 115.832 32.5766C116.186 32.4234 116.505 32.1996 116.77 31.9188C117.035 31.6381 117.24 31.3063 117.372 30.9437C117.505 30.5811 117.562 30.1954 117.54 29.81C117.572 29.419 117.522 29.0257 117.394 28.6548C117.267 28.2839 117.063 27.9435 116.797 27.6551C116.532 27.3667 116.209 27.1365 115.85 26.979C115.49 26.8215 115.102 26.7401 114.71 26.74Z" fill="black"/>
<path d="M95.73 31L97.61 24.83C97.6896 24.6137 97.8119 24.4155 97.9697 24.2474C98.1274 24.0792 98.3173 23.9445 98.5281 23.8512C98.739 23.758 98.9664 23.708 99.1969 23.7044C99.4274 23.7007 99.6563 23.7434 99.87 23.83C100.292 23.9736 100.64 24.278 100.838 24.6769C101.037 25.0758 101.07 25.5369 100.93 25.96L97.93 34.63C97.8045 35.0393 97.5472 35.3956 97.1981 35.6434C96.849 35.8912 96.4278 36.0166 96 36H95.85C95.4358 36.0109 95.0306 35.8785 94.7027 35.6253C94.3747 35.3721 94.1442 35.0135 94.05 34.61L92.05 28.23L90.17 34.61C90.0744 35.0033 89.8504 35.3535 89.5335 35.6053C89.2165 35.857 88.8247 35.9959 88.42 36H88.27C87.8504 35.9948 87.4431 35.8578 87.1057 35.6083C86.7683 35.3589 86.5179 35.0096 86.39 34.61L83.25 25.94C83.178 25.7306 83.1484 25.5091 83.1629 25.2881C83.1773 25.0672 83.2356 24.8514 83.3342 24.6532C83.4328 24.455 83.5699 24.2784 83.7374 24.1336C83.9049 23.9889 84.0996 23.8789 84.31 23.81C84.5236 23.7234 84.7525 23.6807 84.9831 23.6844C85.2136 23.688 85.441 23.738 85.6518 23.8312C85.8627 23.9245 86.0526 24.0592 86.2103 24.2274C86.368 24.3955 86.4903 24.5937 86.57 24.81L88.45 31L90.17 25.16C90.2552 24.743 90.4862 24.37 90.8216 24.1079C91.157 23.8459 91.5747 23.7119 92 23.73H92.2C92.6225 23.7155 93.0364 23.8527 93.3665 24.1168C93.6967 24.381 93.9214 24.7546 94 25.17L95.73 31Z" fill="black"/>
<path d="M70.0001 29.72C69.9713 28.8895 70.1154 28.0621 70.4231 27.2902C70.7309 26.5183 71.1956 25.8188 71.7879 25.2359C72.3802 24.653 73.0871 24.1995 73.8638 23.9042C74.6405 23.6088 75.4701 23.478 76.3001 23.52C77.1324 23.4737 77.9653 23.6013 78.7456 23.8947C79.5259 24.1882 80.2365 24.641 80.8321 25.2243C81.4277 25.8077 81.8951 26.5087 82.2047 27.2828C82.5143 28.0568 82.6591 28.8869 82.6301 29.72C82.654 30.5572 82.5056 31.3904 82.1941 32.1678C81.8825 32.9452 81.4145 33.6502 80.819 34.2391C80.2235 34.8281 79.5133 35.2883 78.7325 35.5912C77.9517 35.8941 77.1169 36.0333 76.2801 36C75.4482 36.0264 74.6198 35.882 73.8459 35.5758C73.0721 35.2695 72.3692 34.8079 71.7807 34.2194C71.1922 33.6309 70.7306 32.928 70.4243 32.1541C70.1181 31.3803 69.9737 30.5519 70.0001 29.72ZM79.0001 29.72C79.0225 29.3496 78.969 28.9785 78.8427 28.6296C78.7165 28.2807 78.5201 27.9613 78.2658 27.691C78.0115 27.4208 77.7046 27.2055 77.3639 27.0583C77.0233 26.9111 76.6561 26.8352 76.2851 26.8352C75.914 26.8352 75.5468 26.9111 75.2062 27.0583C74.8655 27.2055 74.5586 27.4208 74.3043 27.691C74.05 27.9613 73.8536 28.2807 73.7274 28.6296C73.6011 28.9785 73.5476 29.3496 73.5701 29.72C73.5476 30.0904 73.6011 30.4615 73.7274 30.8104C73.8536 31.1594 74.05 31.4788 74.3043 31.749C74.5586 32.0192 74.8655 32.2346 75.2062 32.3818C75.5468 32.5289 75.914 32.6049 76.2851 32.6049C76.6561 32.6049 77.0233 32.5289 77.3639 32.3818C77.7046 32.2346 78.0115 32.0192 78.2658 31.749C78.5201 31.4788 78.7165 31.1594 78.8427 30.8104C78.969 30.4615 79.0225 30.0904 79.0001 29.72Z" fill="black"/>
<path d="M68.19 34.41C68.1617 34.8594 67.9562 35.2792 67.6188 35.5772C67.2813 35.8753 66.8394 36.0274 66.39 36C65.9444 36.0122 65.5107 35.8548 65.1766 35.5597C64.8425 35.2646 64.6329 34.8537 64.59 34.41V19.6C64.6305 19.1545 64.8391 18.7411 65.1735 18.4439C65.5078 18.1467 65.9428 17.988 66.39 18C66.6133 17.9865 66.8371 18.0172 67.0486 18.0903C67.26 18.1635 67.4549 18.2776 67.6221 18.4263C67.7894 18.5749 67.9256 18.7551 68.0231 18.9565C68.1205 19.158 68.1772 19.3766 68.19 19.6V34.41Z" fill="black"/>
<path d="M61.73 18C61.9428 18.009 62.1518 18.0599 62.3449 18.1497C62.538 18.2396 62.7115 18.3666 62.8555 18.5236C62.9995 18.6805 63.1111 18.8644 63.1839 19.0645C63.2567 19.2647 63.2894 19.4772 63.28 19.69C63.274 20.1098 63.1119 20.5123 62.8254 20.8192C62.5389 21.126 62.1484 21.3153 61.73 21.35H55.79V25.44H60.2C60.6226 25.4531 61.0229 25.6329 61.3134 25.9402C61.6038 26.2475 61.7608 26.6573 61.75 27.08C61.7481 27.4981 61.5866 27.8996 61.2985 28.2026C61.0104 28.5056 60.6175 28.6871 60.2 28.71H55.79V34.24C55.7666 34.7237 55.5546 35.1789 55.1994 35.5079C54.8441 35.837 54.374 36.0137 53.89 36C53.4112 35.9988 52.9504 35.8168 52.6 35.4905C52.2496 35.1642 52.0353 34.7175 52 34.24V19.61C51.9849 19.404 52.0124 19.197 52.081 19.0021C52.1496 18.8073 52.2577 18.6286 52.3985 18.4775C52.5393 18.3263 52.7098 18.2059 52.8994 18.1237C53.0889 18.0416 53.2934 17.9994 53.5 18H61.73Z" fill="black"/>
</g>
</mask>
<g mask="url(#mask0)">
<rect x="52" width="152" height="52" fill="#1D304E"/>
</g>
<mask id="mask1" mask-type="alpha" maskUnits="userSpaceOnUse" x="0" y="0" width="52" height="52">
<path d="M22 44H18C17.4696 44 16.9609 43.7893 16.5858 43.4142C16.2107 43.0391 16 42.5304 16 42C16 41.4696 16.2107 40.9609 16.5858 40.5858C16.9609 40.2107 17.4696 40 18 40H20V34C20 33.4696 20.2107 32.9609 20.5858 32.5858C20.9609 32.2107 21.4696 32 22 32H32V26C32 25.4696 32.2107 24.9609 32.5858 24.5858C32.9609 24.2107 33.4696 24 34 24C34.5304 24 35.0391 24.2107 35.4142 24.5858C35.7893 24.9609 36 25.4696 36 26V34C36 34.5304 35.7893 35.0391 35.4142 35.4142C35.0391 35.7893 34.5304 36 34 36H24V42C24 42.5304 23.7893 43.0391 23.4142 43.4142C23.0391 43.7893 22.5304 44 22 44Z" fill="#1D304E"/>
<path d="M14 36H10C9.46957 36 8.96086 35.7893 8.58579 35.4142C8.21071 35.0391 8 34.5304 8 34C8 33.4696 8.21071 32.9609 8.58579 32.5858C8.96086 32.2107 9.46957 32 10 32H14C14.5304 32 15.0391 32.2107 15.4142 32.5858C15.7893 32.9609 16 33.4696 16 34C16 34.5304 15.7893 35.0391 15.4142 35.4142C15.0391 35.7893 14.5304 36 14 36Z" fill="#1D304E"/>
<path d="M42 28H18C17.4696 28 16.9609 27.7893 16.5858 27.4142C16.2107 27.0391 16 26.5304 16 26C16 25.4696 16.2107 24.9609 16.5858 24.5858C16.9609 24.2107 17.4696 24 18 24H40V12H10C9.46957 12 8.96086 11.7893 8.58579 11.4142C8.21071 11.0391 8 10.5304 8 10C8 9.46957 8.21071 8.96086 8.58579 8.58579C8.96086 8.21071 9.46957 8 10 8H42C42.5304 8 43.0391 8.21071 43.4142 8.58579C43.7893 8.96086 44 9.46957 44 10V26C44 26.5304 43.7893 27.0391 43.4142 27.4142C43.0391 27.7893 42.5304 28 42 28Z" fill="#1D304E"/>
<path d="M10 44C9.46957 44 8.96086 43.7893 8.58579 43.4142C8.21071 43.0391 8 42.5304 8 42V18C8 17.4696 8.21071 16.9609 8.58579 16.5858C8.96086 16.2107 9.46957 16 10 16H34C34.5304 16 35.0391 16.2107 35.4142 16.5858C35.7893 16.9609 36 17.4696 36 18C36 18.5304 35.7893 19.0391 35.4142 19.4142C35.0391 19.7893 34.5304 20 34 20H12V42C12 42.5304 11.7893 43.0391 11.4142 43.4142C11.0391 43.7893 10.5304 44 10 44Z" fill="#1D304E"/>
</mask>
<g mask="url(#mask1)">
<rect width="28" height="16" transform="matrix(-1 0 0 1 44 28)" fill="#28BCAD"/>
<path d="M44 8H8V16H40V20H16V28H44V8Z" fill="#F1AD40"/>
<path d="M40 16H8V44H16V20H40V16Z" fill="#4393DB"/>
</g>
<defs>
<clipPath id="clip0">
<rect width="152" height="22" fill="white" transform="translate(52 18)"/>
</clipPath>
</defs>
</svg>
<svg width="212" height="52" viewBox="0 0 212 52" fill="none" xmlns="http://www.w3.org/2000/svg">
<mask id="mask0" mask-type="alpha" maskUnits="userSpaceOnUse" x="52" y="18" width="152" height="22">
<g clip-path="url(#clip0)">
<path d="M184 25.61C183.916 26.0088 183.688 26.3627 183.36 26.6043C183.031 26.8459 182.626 26.9583 182.22 26.92H181.35C179.35 26.92 178.67 28.47 178.62 31.48V34.48C178.592 34.9294 178.386 35.3492 178.049 35.6473C177.711 35.9454 177.269 36.0974 176.82 36.07C176.374 36.0822 175.941 35.9249 175.607 35.6297C175.273 35.3346 175.063 34.9237 175.02 34.48V25.32C175.063 24.8763 175.273 24.4654 175.607 24.1703C175.941 23.8752 176.374 23.7178 176.82 23.73C177.269 23.7026 177.711 23.8547 178.049 24.1528C178.386 24.4509 178.592 24.8706 178.62 25.32V26.64C179.29 24.4 180.55 23.64 181.79 23.64C183.03 23.64 184.24 23.91 184 25.61Z" fill="black"/>
<path d="M204 34.41C203.972 34.8594 203.766 35.2792 203.429 35.5773C203.091 35.8754 202.649 36.0274 202.2 36C201.754 36.0146 201.319 35.8581 200.984 35.5625C200.65 35.2669 200.441 34.8546 200.4 34.41V29.47C200.439 29.1789 200.417 28.8828 200.336 28.6006C200.255 28.3183 200.116 28.0561 199.928 27.8304C199.739 27.6048 199.507 27.4206 199.244 27.2898C198.981 27.1589 198.693 27.084 198.4 27.07C197.27 27.07 196.4 27.77 196.4 29.52V34.41C196.372 34.8594 196.166 35.2792 195.829 35.5773C195.491 35.8754 195.049 36.0274 194.6 36C194.154 36.0146 193.719 35.8581 193.384 35.5625C193.05 35.2669 192.841 34.8546 192.8 34.41V29.41C192.835 29.1238 192.81 28.8334 192.726 28.5574C192.642 28.2815 192.501 28.0261 192.313 27.8077C192.125 27.5893 191.893 27.4126 191.632 27.289C191.372 27.1654 191.088 27.0976 190.8 27.09C189.72 27.09 188.71 27.71 188.71 29.54V34.43C188.682 34.8794 188.476 35.2992 188.139 35.5973C187.801 35.8954 187.359 36.0474 186.91 36.02C186.464 36.0322 186.031 35.8749 185.697 35.5798C185.363 35.2846 185.153 34.8737 185.11 34.43V25.32C185.153 24.8763 185.363 24.4654 185.697 24.1703C186.031 23.8752 186.464 23.7178 186.91 23.73C187.359 23.7026 187.801 23.8547 188.139 24.1528C188.476 24.4509 188.682 24.8706 188.71 25.32V25.61C188.987 25.0113 189.431 24.5046 189.987 24.1501C190.544 23.7956 191.19 23.6082 191.85 23.61C192.671 23.5084 193.503 23.6732 194.223 24.0801C194.943 24.487 195.513 25.1145 195.85 25.87C196.155 25.1946 196.646 24.6203 197.266 24.2146C197.886 23.8089 198.609 23.5887 199.35 23.58C202.21 23.58 204.03 25.41 204.06 29.03L204 34.41Z" fill="black"/>
<path d="M160.61 29.72C160.675 28.0887 161.369 26.5457 162.546 25.4145C163.723 24.2832 165.292 23.6514 166.925 23.6514C168.558 23.6514 170.127 24.2832 171.304 25.4145C172.481 26.5457 173.175 28.0887 173.24 29.72C173.175 31.3514 172.481 32.8943 171.304 34.0256C170.127 35.1569 168.558 35.7887 166.925 35.7887C165.292 35.7887 163.723 35.1569 162.546 34.0256C161.369 32.8943 160.675 31.3514 160.61 29.72ZM169.61 29.72C169.632 29.3496 169.579 28.9785 169.453 28.6296C169.326 28.2807 169.13 27.9613 168.876 27.691C168.621 27.4208 168.315 27.2055 167.974 27.0583C167.633 26.9111 167.266 26.8352 166.895 26.8352C166.524 26.8352 166.157 26.9111 165.816 27.0583C165.475 27.2055 165.169 27.4208 164.914 27.691C164.66 27.9613 164.464 28.2807 164.337 28.6296C164.211 28.9785 164.157 29.3496 164.18 29.72C164.157 30.0904 164.211 30.4615 164.337 30.8104C164.464 31.1594 164.66 31.4788 164.914 31.749C165.169 32.0192 165.475 32.2346 165.816 32.3818C166.157 32.5289 166.524 32.6049 166.895 32.6049C167.266 32.6049 167.633 32.5289 167.974 32.3818C168.315 32.2346 168.621 32.0192 168.876 31.749C169.13 31.4788 169.326 31.1594 169.453 30.8104C169.579 30.4615 169.632 30.0904 169.61 29.72Z" fill="black"/>
<path d="M159 23.86C159.177 23.8677 159.351 23.9103 159.512 23.9854C159.673 24.0604 159.818 24.1665 159.937 24.2975C160.057 24.4284 160.15 24.5817 160.211 24.7486C160.271 24.9155 160.298 25.0927 160.29 25.27C160.296 25.6264 160.166 25.9718 159.926 26.2357C159.687 26.4996 159.355 26.662 159 26.69H157.77V34.41C157.739 34.853 157.537 35.2666 157.207 35.5633C156.877 35.86 156.444 36.0167 156 36C155.554 36.0146 155.119 35.8581 154.784 35.5625C154.45 35.2669 154.241 34.8546 154.2 34.41V26.69H153.06C152.705 26.662 152.375 26.4991 152.137 26.235C151.899 25.9709 151.771 25.6255 151.78 25.27C151.764 24.9135 151.889 24.5651 152.129 24.3009C152.369 24.0366 152.704 23.8781 153.06 23.86H154.2V23.71C154.19 20 156 18 159.46 18H159.77C159.986 18 160.2 18.0427 160.4 18.1258C160.6 18.2088 160.781 18.3305 160.933 18.4839C161.086 18.6372 161.206 18.8192 161.288 19.0193C161.37 19.2195 161.411 19.4338 161.41 19.65C161.4 20.0818 161.224 20.493 160.918 20.7984C160.613 21.1038 160.202 21.2798 159.77 21.29H159.46C158.22 21.29 157.79 22.17 157.79 23.58V23.86H159Z" fill="black"/>
<path d="M145 23.86V20.72C145.043 20.2754 145.252 19.8634 145.586 19.5667C145.92 19.2699 146.353 19.1104 146.8 19.12C147.25 19.0954 147.692 19.2497 148.029 19.5494C148.367 19.849 148.572 20.2698 148.6 20.72V23.86H150C150.177 23.8677 150.351 23.9103 150.512 23.9854C150.673 24.0604 150.818 24.1665 150.937 24.2974C151.057 24.4284 151.15 24.5817 151.211 24.7486C151.271 24.9155 151.298 25.0927 151.29 25.27C151.299 25.6271 151.169 25.9738 150.929 26.2382C150.689 26.5026 150.356 26.6644 150 26.69H148.6V34.41C148.572 34.8594 148.366 35.2791 148.029 35.5772C147.691 35.8753 147.249 36.0274 146.8 36C146.354 36.0122 145.921 35.8548 145.587 35.5597C145.253 35.2646 145.043 34.8537 145 34.41V26.69H144C143.646 26.662 143.315 26.4991 143.077 26.235C142.839 25.9708 142.711 25.6255 142.72 25.27C142.704 24.9135 142.829 24.5651 143.069 24.3008C143.309 24.0366 143.644 23.8781 144 23.86H145Z" fill="black"/>
<path d="M138 25.22C138.041 24.7754 138.25 24.3631 138.584 24.0675C138.919 23.7719 139.354 23.6154 139.8 23.63C140.249 23.6026 140.691 23.7547 141.029 24.0528C141.366 24.3509 141.572 24.7706 141.6 25.22V34.3C141.572 34.7502 141.367 35.171 141.029 35.4706C140.692 35.7703 140.25 35.9247 139.8 35.9C139.352 35.9144 138.916 35.7566 138.581 35.4589C138.246 35.1612 138.038 34.7464 138 34.3V34.07C137.606 34.6733 137.065 35.1668 136.429 35.5043C135.792 35.8419 135.08 36.0124 134.36 36C131.3 36 128.52 33.74 128.52 29.75C128.52 25.76 131.3 23.52 134.36 23.52C135.077 23.5253 135.783 23.7035 136.416 24.0395C137.05 24.3755 137.593 24.8593 138 25.45V25.22ZM135.09 32.81C135.895 32.81 136.667 32.4903 137.236 31.9211C137.805 31.3519 138.125 30.58 138.125 29.775C138.125 28.9701 137.805 28.1981 137.236 27.629C136.667 27.0598 135.895 26.74 135.09 26.74C134.704 26.7408 134.322 26.8202 133.968 26.9734C133.614 27.1266 133.294 27.3505 133.03 27.6312C132.765 27.912 132.56 28.2438 132.428 28.6063C132.295 28.9689 132.238 29.3547 132.26 29.74C132.228 30.1277 132.277 30.5177 132.402 30.8859C132.528 31.254 132.727 31.5925 132.989 31.8804C133.251 32.1682 133.568 32.3992 133.923 32.5591C134.278 32.7191 134.661 32.8045 135.05 32.81H135.09Z" fill="black"/>
<path d="M126.68 34.41C126.649 34.8584 126.443 35.2766 126.106 35.5742C125.769 35.8717 125.329 36.0247 124.88 36C124.434 36.0146 123.999 35.8581 123.664 35.5625C123.33 35.2669 123.121 34.8546 123.08 34.41V19.6C123.118 19.1536 123.326 18.7388 123.661 18.4411C123.996 18.1434 124.432 17.9856 124.88 18C125.33 17.9754 125.772 18.1297 126.109 18.4294C126.447 18.729 126.652 19.1498 126.68 19.6V34.41Z" fill="black"/>
<path d="M115.4 23.52C118.46 23.52 121.24 25.76 121.24 29.75C121.24 33.74 118.46 36 115.4 36C114.686 36.0056 113.983 35.8319 113.354 35.4946C112.725 35.1574 112.19 34.6675 111.8 34.07V38.4C111.759 38.8455 111.551 39.2589 111.216 39.5561C110.882 39.8533 110.447 40.012 110 40C109.777 40.0135 109.553 39.9828 109.341 39.9097C109.13 39.8365 108.935 39.7224 108.768 39.5737C108.601 39.4251 108.464 39.2449 108.367 39.0435C108.269 38.8421 108.213 38.6234 108.2 38.4V25.22C108.228 24.7706 108.434 24.3509 108.771 24.0528C109.109 23.7547 109.551 23.6026 110 23.63C110.446 23.6178 110.879 23.7752 111.213 24.0703C111.547 24.3654 111.757 24.7763 111.8 25.22V25.45C112.203 24.8648 112.74 24.3844 113.366 24.0487C113.992 23.713 114.69 23.5317 115.4 23.52ZM114.71 26.74C113.905 26.74 113.133 27.0598 112.564 27.629C111.995 28.1981 111.675 28.9701 111.675 29.775C111.675 30.58 111.995 31.3519 112.564 31.9211C113.133 32.4903 113.905 32.81 114.71 32.81C115.096 32.8093 115.478 32.7299 115.832 32.5766C116.186 32.4234 116.505 32.1996 116.77 31.9188C117.035 31.6381 117.24 31.3063 117.372 30.9437C117.505 30.5811 117.562 30.1954 117.54 29.81C117.572 29.419 117.522 29.0257 117.394 28.6548C117.267 28.2839 117.063 27.9435 116.797 27.6551C116.532 27.3667 116.209 27.1365 115.85 26.979C115.49 26.8215 115.102 26.7401 114.71 26.74Z" fill="black"/>
<path d="M95.73 31L97.61 24.83C97.6896 24.6137 97.8119 24.4155 97.9697 24.2474C98.1274 24.0792 98.3173 23.9445 98.5281 23.8512C98.739 23.758 98.9664 23.708 99.1969 23.7044C99.4274 23.7007 99.6563 23.7434 99.87 23.83C100.292 23.9736 100.64 24.278 100.838 24.6769C101.037 25.0758 101.07 25.5369 100.93 25.96L97.93 34.63C97.8045 35.0393 97.5472 35.3956 97.1981 35.6434C96.849 35.8912 96.4278 36.0166 96 36H95.85C95.4358 36.0109 95.0306 35.8785 94.7027 35.6253C94.3747 35.3721 94.1442 35.0135 94.05 34.61L92.05 28.23L90.17 34.61C90.0744 35.0033 89.8504 35.3535 89.5335 35.6053C89.2165 35.857 88.8247 35.9959 88.42 36H88.27C87.8504 35.9948 87.4431 35.8578 87.1057 35.6083C86.7683 35.3589 86.5179 35.0096 86.39 34.61L83.25 25.94C83.178 25.7306 83.1484 25.5091 83.1629 25.2881C83.1773 25.0672 83.2356 24.8514 83.3342 24.6532C83.4328 24.455 83.5699 24.2784 83.7374 24.1336C83.9049 23.9889 84.0996 23.8789 84.31 23.81C84.5236 23.7234 84.7525 23.6807 84.9831 23.6844C85.2136 23.688 85.441 23.738 85.6518 23.8312C85.8627 23.9245 86.0526 24.0592 86.2103 24.2274C86.368 24.3955 86.4903 24.5937 86.57 24.81L88.45 31L90.17 25.16C90.2552 24.743 90.4862 24.37 90.8216 24.1079C91.157 23.8459 91.5747 23.7119 92 23.73H92.2C92.6225 23.7155 93.0364 23.8527 93.3665 24.1168C93.6967 24.381 93.9214 24.7546 94 25.17L95.73 31Z" fill="black"/>
<path d="M70.0001 29.72C69.9713 28.8895 70.1154 28.0621 70.4231 27.2902C70.7309 26.5183 71.1956 25.8188 71.7879 25.2359C72.3802 24.653 73.0871 24.1995 73.8638 23.9042C74.6405 23.6088 75.4701 23.478 76.3001 23.52C77.1324 23.4737 77.9653 23.6013 78.7456 23.8947C79.5259 24.1882 80.2365 24.641 80.8321 25.2243C81.4277 25.8077 81.8951 26.5087 82.2047 27.2828C82.5143 28.0568 82.6591 28.8869 82.6301 29.72C82.654 30.5572 82.5056 31.3904 82.1941 32.1678C81.8825 32.9452 81.4145 33.6502 80.819 34.2391C80.2235 34.8281 79.5133 35.2883 78.7325 35.5912C77.9517 35.8941 77.1169 36.0333 76.2801 36C75.4482 36.0264 74.6198 35.882 73.8459 35.5758C73.0721 35.2695 72.3692 34.8079 71.7807 34.2194C71.1922 33.6309 70.7306 32.928 70.4243 32.1541C70.1181 31.3803 69.9737 30.5519 70.0001 29.72ZM79.0001 29.72C79.0225 29.3496 78.969 28.9785 78.8427 28.6296C78.7165 28.2807 78.5201 27.9613 78.2658 27.691C78.0115 27.4208 77.7046 27.2055 77.3639 27.0583C77.0233 26.9111 76.6561 26.8352 76.2851 26.8352C75.914 26.8352 75.5468 26.9111 75.2062 27.0583C74.8655 27.2055 74.5586 27.4208 74.3043 27.691C74.05 27.9613 73.8536 28.2807 73.7274 28.6296C73.6011 28.9785 73.5476 29.3496 73.5701 29.72C73.5476 30.0904 73.6011 30.4615 73.7274 30.8104C73.8536 31.1594 74.05 31.4788 74.3043 31.749C74.5586 32.0192 74.8655 32.2346 75.2062 32.3818C75.5468 32.5289 75.914 32.6049 76.2851 32.6049C76.6561 32.6049 77.0233 32.5289 77.3639 32.3818C77.7046 32.2346 78.0115 32.0192 78.2658 31.749C78.5201 31.4788 78.7165 31.1594 78.8427 30.8104C78.969 30.4615 79.0225 30.0904 79.0001 29.72Z" fill="black"/>
<path d="M68.19 34.41C68.1617 34.8594 67.9562 35.2792 67.6188 35.5772C67.2813 35.8753 66.8394 36.0274 66.39 36C65.9444 36.0122 65.5107 35.8548 65.1766 35.5597C64.8425 35.2646 64.6329 34.8537 64.59 34.41V19.6C64.6305 19.1545 64.8391 18.7411 65.1735 18.4439C65.5078 18.1467 65.9428 17.988 66.39 18C66.6133 17.9865 66.8371 18.0172 67.0486 18.0903C67.26 18.1635 67.4549 18.2776 67.6221 18.4263C67.7894 18.5749 67.9256 18.7551 68.0231 18.9565C68.1205 19.158 68.1772 19.3766 68.19 19.6V34.41Z" fill="black"/>
<path d="M61.73 18C61.9428 18.009 62.1518 18.0599 62.3449 18.1497C62.538 18.2396 62.7115 18.3666 62.8555 18.5236C62.9995 18.6805 63.1111 18.8644 63.1839 19.0645C63.2567 19.2647 63.2894 19.4772 63.28 19.69C63.274 20.1098 63.1119 20.5123 62.8254 20.8192C62.5389 21.126 62.1484 21.3153 61.73 21.35H55.79V25.44H60.2C60.6226 25.4531 61.0229 25.6329 61.3134 25.9402C61.6038 26.2475 61.7608 26.6573 61.75 27.08C61.7481 27.4981 61.5866 27.8996 61.2985 28.2026C61.0104 28.5056 60.6175 28.6871 60.2 28.71H55.79V34.24C55.7666 34.7237 55.5546 35.1789 55.1994 35.5079C54.8441 35.837 54.374 36.0137 53.89 36C53.4112 35.9988 52.9504 35.8168 52.6 35.4905C52.2496 35.1642 52.0353 34.7175 52 34.24V19.61C51.9849 19.404 52.0124 19.197 52.081 19.0021C52.1496 18.8073 52.2577 18.6286 52.3985 18.4775C52.5393 18.3263 52.7098 18.2059 52.8994 18.1237C53.0889 18.0416 53.2934 17.9994 53.5 18H61.73Z" fill="black"/>
</g>
</mask>
<g mask="url(#mask0)">
<rect x="52" width="152" height="52" fill="#1D304E"/>
</g>
<mask id="mask1" mask-type="alpha" maskUnits="userSpaceOnUse" x="0" y="0" width="52" height="52">
<path d="M22 44H18C17.4696 44 16.9609 43.7893 16.5858 43.4142C16.2107 43.0391 16 42.5304 16 42C16 41.4696 16.2107 40.9609 16.5858 40.5858C16.9609 40.2107 17.4696 40 18 40H20V34C20 33.4696 20.2107 32.9609 20.5858 32.5858C20.9609 32.2107 21.4696 32 22 32H32V26C32 25.4696 32.2107 24.9609 32.5858 24.5858C32.9609 24.2107 33.4696 24 34 24C34.5304 24 35.0391 24.2107 35.4142 24.5858C35.7893 24.9609 36 25.4696 36 26V34C36 34.5304 35.7893 35.0391 35.4142 35.4142C35.0391 35.7893 34.5304 36 34 36H24V42C24 42.5304 23.7893 43.0391 23.4142 43.4142C23.0391 43.7893 22.5304 44 22 44Z" fill="#1D304E"/>
<path d="M14 36H10C9.46957 36 8.96086 35.7893 8.58579 35.4142C8.21071 35.0391 8 34.5304 8 34C8 33.4696 8.21071 32.9609 8.58579 32.5858C8.96086 32.2107 9.46957 32 10 32H14C14.5304 32 15.0391 32.2107 15.4142 32.5858C15.7893 32.9609 16 33.4696 16 34C16 34.5304 15.7893 35.0391 15.4142 35.4142C15.0391 35.7893 14.5304 36 14 36Z" fill="#1D304E"/>
<path d="M42 28H18C17.4696 28 16.9609 27.7893 16.5858 27.4142C16.2107 27.0391 16 26.5304 16 26C16 25.4696 16.2107 24.9609 16.5858 24.5858C16.9609 24.2107 17.4696 24 18 24H40V12H10C9.46957 12 8.96086 11.7893 8.58579 11.4142C8.21071 11.0391 8 10.5304 8 10C8 9.46957 8.21071 8.96086 8.58579 8.58579C8.96086 8.21071 9.46957 8 10 8H42C42.5304 8 43.0391 8.21071 43.4142 8.58579C43.7893 8.96086 44 9.46957 44 10V26C44 26.5304 43.7893 27.0391 43.4142 27.4142C43.0391 27.7893 42.5304 28 42 28Z" fill="#1D304E"/>
<path d="M10 44C9.46957 44 8.96086 43.7893 8.58579 43.4142C8.21071 43.0391 8 42.5304 8 42V18C8 17.4696 8.21071 16.9609 8.58579 16.5858C8.96086 16.2107 9.46957 16 10 16H34C34.5304 16 35.0391 16.2107 35.4142 16.5858C35.7893 16.9609 36 17.4696 36 18C36 18.5304 35.7893 19.0391 35.4142 19.4142C35.0391 19.7893 34.5304 20 34 20H12V42C12 42.5304 11.7893 43.0391 11.4142 43.4142C11.0391 43.7893 10.5304 44 10 44Z" fill="#1D304E"/>
</mask>
<g mask="url(#mask1)">
<rect width="28" height="16" transform="matrix(-1 0 0 1 44 28)" fill="#28BCAD"/>
<path d="M44 8H8V16H40V20H16V28H44V8Z" fill="#F1AD40"/>
<path d="M40 16H8V44H16V20H40V16Z" fill="#4393DB"/>
</g>
<defs>
<clipPath id="clip0">
<rect width="152" height="22" fill="white" transform="translate(52 18)"/>
</clipPath>
</defs>
</svg>
