<svg width="212" height="52" viewBox="0 0 212 52" fill="none" xmlns="http://www.w3.org/2000/svg">
<g clip-path="url(#clip0)">
<path d="M184 25.6101C183.916 26.0089 183.688 26.3628 183.36 26.6044C183.031 26.846 182.626 26.9584 182.22 26.9201H181.35C179.35 26.9201 178.67 28.4701 178.62 31.4801V34.4801C178.592 34.9295 178.386 35.3493 178.049 35.6474C177.711 35.9455 177.269 36.0975 176.82 36.0701C176.374 36.0823 175.941 35.925 175.607 35.6299C175.273 35.3347 175.063 34.9238 175.02 34.4801V25.3201C175.063 24.8764 175.273 24.4655 175.607 24.1704C175.941 23.8753 176.374 23.7179 176.82 23.7301C177.269 23.7028 177.711 23.8548 178.049 24.1529C178.386 24.451 178.592 24.8708 178.62 25.3201V26.6401C179.29 24.4001 180.55 23.6401 181.79 23.6401C183.03 23.6401 184.24 23.9101 184 25.6101Z" fill="#1D304E"/>
<path d="M204 34.4101C203.972 34.8594 203.766 35.2792 203.429 35.5773C203.091 35.8754 202.65 36.0275 202.2 36.0001C201.754 36.0147 201.319 35.8582 200.984 35.5626C200.65 35.267 200.441 34.8547 200.4 34.4101V29.4701C200.439 29.179 200.417 28.8829 200.336 28.6006C200.255 28.3184 200.116 28.0561 199.928 27.8305C199.74 27.6048 199.507 27.4207 199.244 27.2898C198.981 27.1589 198.694 27.0841 198.4 27.0701C197.27 27.0701 196.4 27.7701 196.4 29.5201V34.4101C196.372 34.8594 196.166 35.2792 195.829 35.5773C195.491 35.8754 195.05 36.0275 194.6 36.0001C194.154 36.0147 193.719 35.8582 193.384 35.5626C193.05 35.267 192.841 34.8547 192.8 34.4101V29.4101C192.835 29.1238 192.81 28.8334 192.726 28.5575C192.642 28.2816 192.501 28.0262 192.313 27.8078C192.125 27.5893 191.893 27.4127 191.632 27.2891C191.372 27.1655 191.088 27.0977 190.8 27.0901C189.72 27.0901 188.71 27.7101 188.71 29.5401V34.4301C188.682 34.8794 188.476 35.2992 188.139 35.5973C187.801 35.8954 187.36 36.0475 186.91 36.0201C186.465 36.0323 186.031 35.8749 185.697 35.5798C185.363 35.2847 185.153 34.8738 185.11 34.4301V25.3201C185.153 24.8764 185.363 24.4655 185.697 24.1703C186.031 23.8752 186.465 23.7179 186.91 23.7301C187.36 23.7027 187.801 23.8547 188.139 24.1528C188.476 24.4509 188.682 24.8707 188.71 25.3201V25.6101C188.987 25.0113 189.431 24.5047 189.987 24.1502C190.544 23.7957 191.19 23.6083 191.85 23.6101C192.671 23.5085 193.503 23.6733 194.223 24.0802C194.943 24.4871 195.514 25.1145 195.85 25.8701C196.155 25.1947 196.646 24.6203 197.266 24.2147C197.886 23.809 198.609 23.5888 199.35 23.5801C202.21 23.5801 204.03 25.4101 204.06 29.0301L204 34.4101Z" fill="#1D304E"/>
<path d="M160.61 29.72C160.675 28.0887 161.369 26.5457 162.546 25.4145C163.723 24.2832 165.292 23.6514 166.925 23.6514C168.558 23.6514 170.127 24.2832 171.304 25.4145C172.481 26.5457 173.175 28.0887 173.24 29.72C173.175 31.3514 172.481 32.8943 171.304 34.0256C170.127 35.1569 168.558 35.7887 166.925 35.7887C165.292 35.7887 163.723 35.1569 162.546 34.0256C161.369 32.8943 160.675 31.3514 160.61 29.72ZM169.61 29.72C169.633 29.3496 169.579 28.9785 169.453 28.6296C169.327 28.2807 169.13 27.9613 168.876 27.691C168.622 27.4208 168.315 27.2055 167.974 27.0583C167.633 26.9111 167.266 26.8352 166.895 26.8352C166.524 26.8352 166.157 26.9111 165.816 27.0583C165.476 27.2055 165.169 27.4208 164.914 27.691C164.66 27.9613 164.464 28.2807 164.337 28.6296C164.211 28.9785 164.158 29.3496 164.18 29.72C164.158 30.0904 164.211 30.4615 164.337 30.8104C164.464 31.1594 164.66 31.4788 164.914 31.749C165.169 32.0192 165.476 32.2346 165.816 32.3818C166.157 32.5289 166.524 32.6049 166.895 32.6049C167.266 32.6049 167.633 32.5289 167.974 32.3818C168.315 32.2346 168.622 32.0192 168.876 31.749C169.13 31.4788 169.327 31.1594 169.453 30.8104C169.579 30.4615 169.633 30.0904 169.61 29.72Z" fill="#1D304E"/>
<path d="M159 23.86C159.177 23.8677 159.351 23.9103 159.512 23.9854C159.673 24.0604 159.818 24.1665 159.937 24.2975C160.057 24.4284 160.15 24.5817 160.211 24.7486C160.271 24.9155 160.298 25.0927 160.29 25.27C160.296 25.6264 160.166 25.9718 159.926 26.2357C159.687 26.4996 159.355 26.662 159 26.69H157.77V34.41C157.739 34.853 157.537 35.2666 157.207 35.5633C156.877 35.86 156.444 36.0167 156 36C155.554 36.0146 155.119 35.8581 154.784 35.5625C154.45 35.2669 154.241 34.8546 154.2 34.41V26.69H153.06C152.705 26.662 152.375 26.4991 152.137 26.235C151.899 25.9709 151.771 25.6255 151.78 25.27C151.764 24.9135 151.889 24.5651 152.129 24.3009C152.369 24.0366 152.704 23.8781 153.06 23.86H154.2V23.71C154.19 20 156 18 159.46 18H159.77C159.986 18 160.2 18.0427 160.4 18.1258C160.6 18.2088 160.781 18.3305 160.933 18.4839C161.086 18.6372 161.206 18.8192 161.288 19.0193C161.37 19.2195 161.411 19.4338 161.41 19.65C161.4 20.0818 161.224 20.493 160.918 20.7984C160.613 21.1038 160.202 21.2798 159.77 21.29H159.46C158.22 21.29 157.79 22.17 157.79 23.58V23.86H159Z" fill="#1D304E"/>
<path d="M145 23.8602V20.7202C145.043 20.2756 145.252 19.8636 145.586 19.5669C145.92 19.2702 146.353 19.1106 146.8 19.1202C147.25 19.0956 147.692 19.2499 148.029 19.5496C148.367 19.8493 148.572 20.27 148.6 20.7202V23.8602H150C150.177 23.8679 150.351 23.9105 150.512 23.9856C150.673 24.0607 150.818 24.1667 150.937 24.2977C151.057 24.4287 151.15 24.582 151.21 24.7488C151.271 24.9157 151.298 25.0929 151.29 25.2702C151.299 25.6273 151.169 25.9741 150.929 26.2385C150.689 26.5029 150.356 26.6646 150 26.6902H148.6V34.4102C148.572 34.8596 148.366 35.2794 148.029 35.5775C147.691 35.8756 147.249 36.0276 146.8 36.0002C146.354 36.0124 145.921 35.8551 145.587 35.56C145.252 35.2648 145.043 34.8539 145 34.4102V26.6902H144C143.645 26.6622 143.315 26.4994 143.077 26.2352C142.839 25.9711 142.711 25.6257 142.72 25.2702C142.704 24.9137 142.829 24.5653 143.069 24.3011C143.309 24.0369 143.644 23.8784 144 23.8602H145Z" fill="#1D304E"/>
<path d="M138 25.22C138.041 24.7754 138.25 24.3631 138.584 24.0675C138.919 23.7719 139.354 23.6154 139.8 23.63C140.249 23.6026 140.691 23.7547 141.029 24.0528C141.366 24.3509 141.572 24.7706 141.6 25.22V34.3C141.572 34.7502 141.367 35.171 141.029 35.4706C140.692 35.7703 140.25 35.9247 139.8 35.9C139.352 35.9144 138.916 35.7566 138.581 35.4589C138.246 35.1612 138.038 34.7464 138 34.3V34.07C137.606 34.6733 137.065 35.1668 136.429 35.5043C135.792 35.8419 135.08 36.0124 134.36 36C131.3 36 128.52 33.74 128.52 29.75C128.52 25.76 131.3 23.52 134.36 23.52C135.077 23.5253 135.783 23.7035 136.416 24.0395C137.05 24.3755 137.593 24.8593 138 25.45V25.22ZM135.09 32.81C135.895 32.81 136.667 32.4903 137.236 31.9211C137.805 31.3519 138.125 30.58 138.125 29.775C138.125 28.9701 137.805 28.1981 137.236 27.629C136.667 27.0598 135.895 26.74 135.09 26.74C134.704 26.7408 134.322 26.8202 133.968 26.9734C133.614 27.1266 133.294 27.3505 133.03 27.6312C132.765 27.912 132.56 28.2438 132.428 28.6063C132.295 28.9689 132.238 29.3547 132.26 29.74C132.228 30.1277 132.277 30.5177 132.402 30.8859C132.528 31.254 132.727 31.5925 132.989 31.8804C133.251 32.1682 133.568 32.3992 133.923 32.5591C134.278 32.7191 134.661 32.8045 135.05 32.81H135.09Z" fill="#1D304E"/>
<path d="M126.68 34.4101C126.649 34.8585 126.443 35.2767 126.106 35.5743C125.769 35.8719 125.329 36.0248 124.88 36.0001C124.434 36.0147 123.999 35.8582 123.664 35.5626C123.33 35.267 123.121 34.8547 123.08 34.4101V19.6001C123.118 19.1537 123.326 18.7389 123.661 18.4412C123.996 18.1436 124.432 17.9857 124.88 18.0001C125.33 17.9755 125.772 18.1298 126.11 18.4295C126.447 18.7292 126.652 19.1499 126.68 19.6001V34.4101Z" fill="#1D304E"/>
<path d="M115.4 23.52C118.46 23.52 121.24 25.76 121.24 29.75C121.24 33.74 118.46 36 115.4 36C114.686 36.0056 113.983 35.8319 113.354 35.4946C112.725 35.1574 112.19 34.6675 111.8 34.07V38.4C111.759 38.8455 111.551 39.2589 111.216 39.5561C110.882 39.8533 110.447 40.012 110 40C109.777 40.0135 109.553 39.9828 109.341 39.9097C109.13 39.8365 108.935 39.7224 108.768 39.5737C108.601 39.4251 108.464 39.2449 108.367 39.0435C108.269 38.8421 108.213 38.6234 108.2 38.4V25.22C108.228 24.7706 108.434 24.3509 108.771 24.0528C109.109 23.7547 109.551 23.6026 110 23.63C110.446 23.6178 110.879 23.7752 111.213 24.0703C111.547 24.3654 111.757 24.7763 111.8 25.22V25.45C112.203 24.8648 112.74 24.3844 113.366 24.0487C113.992 23.713 114.69 23.5317 115.4 23.52ZM114.71 26.74C113.905 26.74 113.133 27.0598 112.564 27.629C111.995 28.1981 111.675 28.9701 111.675 29.775C111.675 30.58 111.995 31.3519 112.564 31.9211C113.133 32.4903 113.905 32.81 114.71 32.81C115.096 32.8093 115.478 32.7299 115.832 32.5766C116.186 32.4234 116.505 32.1996 116.77 31.9188C117.035 31.6381 117.24 31.3063 117.372 30.9437C117.505 30.5811 117.562 30.1954 117.54 29.81C117.572 29.419 117.522 29.0257 117.394 28.6548C117.267 28.2839 117.063 27.9435 116.797 27.6551C116.532 27.3667 116.209 27.1365 115.85 26.979C115.49 26.8215 115.102 26.7401 114.71 26.74Z" fill="#1D304E"/>
<path d="M95.7301 31L97.6101 24.83C97.6897 24.6136 97.8121 24.4155 97.9698 24.2473C98.1275 24.0792 98.3174 23.9445 98.5283 23.8512C98.7391 23.7579 98.9665 23.7079 99.197 23.7043C99.4275 23.7007 99.6564 23.7434 99.8701 23.83C100.292 23.9736 100.64 24.2779 100.838 24.6768C101.037 25.0757 101.07 25.5369 100.93 25.96L97.9301 34.63C97.8046 35.0393 97.5473 35.3956 97.1982 35.6434C96.8491 35.8912 96.4279 36.0165 96.0001 36H95.8501C95.4359 36.0108 95.0307 35.8785 94.7028 35.6252C94.3749 35.372 94.1443 35.0134 94.0501 34.61L92.0501 28.23L90.1701 34.61C90.0745 35.0032 89.8505 35.3535 89.5336 35.6052C89.2166 35.8569 88.8248 35.9958 88.4201 36H88.2701C87.8505 35.9948 87.4432 35.8577 87.1058 35.6083C86.7684 35.3588 86.518 35.0096 86.3901 34.61L83.2501 25.94C83.1781 25.7306 83.1485 25.509 83.163 25.2881C83.1775 25.0672 83.2357 24.8513 83.3343 24.6531C83.433 24.4549 83.57 24.2783 83.7375 24.1335C83.9051 23.9888 84.0997 23.8788 84.3101 23.81C84.5238 23.7234 84.7527 23.6807 84.9832 23.6843C85.2137 23.6879 85.4411 23.7379 85.6519 23.8312C85.8628 23.9245 86.0527 24.0592 86.2104 24.2273C86.3681 24.3955 86.4905 24.5936 86.5701 24.81L88.4501 31L90.1701 25.16C90.2553 24.7429 90.4863 24.3699 90.8217 24.1079C91.1571 23.8458 91.5749 23.7118 92.0001 23.73H92.2001C92.6227 23.7154 93.0365 23.8526 93.3666 24.1168C93.6968 24.3809 93.9215 24.7545 94.0001 25.17L95.7301 31Z" fill="#1D304E"/>
<path d="M69.9999 29.72C69.9712 28.8895 70.1152 28.0621 70.423 27.2902C70.7307 26.5183 71.1955 25.8188 71.7878 25.2359C72.3801 24.653 73.087 24.1995 73.8637 23.9042C74.6404 23.6088 75.47 23.478 76.2999 23.52C77.1323 23.4737 77.9652 23.6013 78.7455 23.8947C79.5258 24.1882 80.2364 24.641 80.832 25.2243C81.4276 25.8077 81.895 26.5087 82.2046 27.2828C82.5141 28.0568 82.659 28.8869 82.6299 29.72C82.6539 30.5572 82.5055 31.3904 82.1939 32.1678C81.8824 32.9452 81.4143 33.6502 80.8188 34.2391C80.2234 34.8281 79.5132 35.2883 78.7323 35.5912C77.9515 35.8941 77.1168 36.0333 76.2799 36C75.4481 36.0264 74.6197 35.882 73.8458 35.5758C73.072 35.2695 72.3691 34.8079 71.7806 34.2194C71.1921 33.6309 70.7305 32.928 70.4242 32.1541C70.1179 31.3803 69.9736 30.5519 69.9999 29.72ZM78.9999 29.72C79.0224 29.3496 78.9689 28.9785 78.8426 28.6296C78.7163 28.2807 78.52 27.9613 78.2657 27.691C78.0114 27.4208 77.7045 27.2055 77.3638 27.0583C77.0232 26.9111 76.656 26.8352 76.2849 26.8352C75.9139 26.8352 75.5467 26.9111 75.2061 27.0583C74.8654 27.2055 74.5585 27.4208 74.3042 27.691C74.0499 27.9613 73.8535 28.2807 73.7273 28.6296C73.601 28.9785 73.5474 29.3496 73.5699 29.72C73.5474 30.0904 73.601 30.4615 73.7273 30.8104C73.8535 31.1594 74.0499 31.4788 74.3042 31.749C74.5585 32.0192 74.8654 32.2346 75.2061 32.3818C75.5467 32.5289 75.9139 32.6049 76.2849 32.6049C76.656 32.6049 77.0232 32.5289 77.3638 32.3818C77.7045 32.2346 78.0114 32.0192 78.2657 31.749C78.52 31.4788 78.7163 31.1594 78.8426 30.8104C78.9689 30.4615 79.0224 30.0904 78.9999 29.72Z" fill="#1D304E"/>
<path d="M68.1901 34.4102C68.1618 34.8596 67.9564 35.2793 67.6189 35.5774C67.2814 35.8755 66.8395 36.0276 66.3901 36.0002C65.9445 36.0124 65.5108 35.855 65.1767 35.5599C64.8426 35.2648 64.633 34.8539 64.5901 34.4102V19.6002C64.6306 19.1547 64.8392 18.7413 65.1736 18.4441C65.5079 18.1469 65.9429 17.9882 66.3901 18.0002C66.6134 17.9867 66.8372 18.0173 67.0487 18.0905C67.2601 18.1637 67.455 18.2778 67.6223 18.4265C67.7895 18.5751 67.9257 18.7553 68.0232 18.9567C68.1206 19.1581 68.1773 19.3768 68.1901 19.6002V34.4102Z" fill="#1D304E"/>
<path d="M61.7299 18C61.9427 18.009 62.1516 18.0599 62.3448 18.1497C62.5379 18.2396 62.7114 18.3666 62.8554 18.5236C62.9993 18.6805 63.1109 18.8644 63.1838 19.0645C63.2566 19.2647 63.2893 19.4772 63.2799 19.69C63.2739 20.1098 63.1118 20.5123 62.8253 20.8192C62.5388 21.126 62.1483 21.3153 61.7299 21.35H55.7899V25.44H60.1999C60.6225 25.4531 61.0228 25.6329 61.3132 25.9402C61.6037 26.2475 61.7607 26.6573 61.7499 27.08C61.748 27.4981 61.5865 27.8996 61.2984 28.2026C61.0103 28.5056 60.6173 28.6871 60.1999 28.71H55.7899V34.24C55.7665 34.7237 55.5545 35.1789 55.1992 35.5079C54.844 35.837 54.3739 36.0137 53.8899 36C53.411 35.9988 52.9503 35.8168 52.5999 35.4905C52.2495 35.1642 52.0352 34.7175 51.9999 34.24V19.61C51.9847 19.404 52.0123 19.197 52.0809 19.0021C52.1494 18.8073 52.2575 18.6286 52.3984 18.4775C52.5392 18.3263 52.7097 18.2059 52.8993 18.1237C53.0888 18.0416 53.2933 17.9994 53.4999 18H61.7299Z" fill="#1D304E"/>
</g>
<path d="M22 44H18C17.4696 44 16.9609 43.7893 16.5858 43.4142C16.2107 43.0391 16 42.5304 16 42C16 41.4696 16.2107 40.9609 16.5858 40.5858C16.9609 40.2107 17.4696 40 18 40H20V34C20 33.4696 20.2107 32.9609 20.5858 32.5858C20.9609 32.2107 21.4696 32 22 32H32V26C32 25.4696 32.2107 24.9609 32.5858 24.5858C32.9609 24.2107 33.4696 24 34 24C34.5304 24 35.0391 24.2107 35.4142 24.5858C35.7893 24.9609 36 25.4696 36 26V34C36 34.5304 35.7893 35.0391 35.4142 35.4142C35.0391 35.7893 34.5304 36 34 36H24V42C24 42.5304 23.7893 43.0391 23.4142 43.4142C23.0391 43.7893 22.5304 44 22 44Z" fill="#28BCAD"/>
<path d="M42 28H18C17.4696 28 16.9609 27.7893 16.5858 27.4142C16.2107 27.0391 16 26.5304 16 26C16 25.4696 16.2107 24.9609 16.5858 24.5858C16.9609 24.2107 17.4696 24 18 24H40V12H10C9.46957 12 8.96086 11.7893 8.58579 11.4142C8.21071 11.0391 8 10.5304 8 10C8 9.46957 8.21071 8.96086 8.58579 8.58579C8.96086 8.21071 9.46957 8 10 8H42C42.5304 8 43.0391 8.21071 43.4142 8.58579C43.7893 8.96086 44 9.46957 44 10V26C44 26.5304 43.7893 27.0391 43.4142 27.4142C43.0391 27.7893 42.5304 28 42 28Z" fill="#F1AD40"/>
<path d="M14 36H10C9.46957 36 8.96086 35.7893 8.58579 35.4142C8.21071 35.0391 8 34.5304 8 34C8 33.4696 8.21071 32.9609 8.58579 32.5858C8.96086 32.2107 9.46957 32 10 32H14C14.5304 32 15.0391 32.2107 15.4142 32.5858C15.7893 32.9609 16 33.4696 16 34C16 34.5304 15.7893 35.0391 15.4142 35.4142C15.0391 35.7893 14.5304 36 14 36Z" fill="#4393DB"/>
<path d="M10 44C9.46957 44 8.96086 43.7893 8.58579 43.4142C8.21071 43.0391 8 42.5304 8 42V18C8 17.4696 8.21071 16.9609 8.58579 16.5858C8.96086 16.2107 9.46957 16 10 16H34C34.5304 16 35.0391 16.2107 35.4142 16.5858C35.7893 16.9609 36 17.4696 36 18C36 18.5304 35.7893 19.0391 35.4142 19.4142C35.0391 19.7893 34.5304 20 34 20H12V42C12 42.5304 11.7893 43.0391 11.4142 43.4142C11.0391 43.7893 10.5304 44 10 44Z" fill="#4393DB"/>
<defs>
<clipPath id="clip0">
<rect width="152" height="22" fill="white" transform="translate(52 18)"/>
</clipPath>
</defs>
</svg>
